<svg width="60" height="60" viewBox="0 0 60 60" fill="none" xmlns="http://www.w3.org/2000/svg">
<g id="Group 2608713">
<path id="Vector" d="M33.084 0.00369106C35.2731 -0.00470932 37.4622 0.0172923 39.6507 0.069689L40.2327 0.0906882C40.9046 0.114687 41.5676 0.144686 42.3686 0.180685C45.5604 0.33068 47.7383 0.834663 49.6492 1.57564C51.6291 2.33761 53.297 3.36958 54.9649 5.03752C56.49 6.53629 57.6702 8.34925 58.4237 10.3503C59.1647 12.2613 59.6687 14.4422 59.8187 17.6341C59.8547 18.4321 59.8847 19.098 59.9087 19.77L59.9267 20.352C59.98 22.5395 60.003 24.7276 59.9957 26.9158L59.9987 29.1537V33.0836C60.006 35.2727 59.983 37.4618 59.9297 39.6503L59.9117 40.2323C59.8877 40.9043 59.8577 41.5673 59.8217 42.3682C59.6717 45.5601 59.1617 47.7381 58.4237 49.649C57.6727 51.6522 56.4921 53.4667 54.9649 54.9648C53.4649 56.4897 51.651 57.67 49.6492 58.4237C47.7383 59.1647 45.5604 59.6687 42.3686 59.8187C41.5676 59.8547 40.9046 59.8847 40.2327 59.9087L39.6507 59.9267C37.4622 59.98 35.2731 60.003 33.084 59.9957L30.8461 59.9986H26.9193C24.7302 60.006 22.5411 59.983 20.3527 59.9297L19.7707 59.9117C19.0586 59.8858 18.3466 59.8558 17.6348 59.8217C14.443 59.6717 12.2651 59.1617 10.3512 58.4237C8.34935 57.6718 6.53611 56.4912 5.03847 54.9648C3.51169 53.4657 2.33028 51.6516 1.57665 49.649C0.835688 47.7381 0.331714 45.5601 0.181721 42.3682C0.148312 41.6564 0.118313 40.9444 0.0917262 40.2323L0.0767274 39.6503C0.0214209 37.4619 -0.00358046 35.2727 0.00173091 33.0836V26.9158C-0.00664156 24.7277 0.0153597 22.5395 0.0677278 20.352L0.0887266 19.77C0.112725 19.098 0.142724 18.4321 0.178722 17.6341C0.328714 14.4392 0.832688 12.2643 1.57365 10.3503C2.32773 8.34827 3.51144 6.5358 5.04147 5.04052C6.53808 3.51283 8.35019 2.33033 10.3512 1.57564C12.2651 0.834663 14.44 0.33068 17.6348 0.180685L19.7707 0.0906882L20.3527 0.0756891C22.5401 0.0204094 24.7282 -0.0045924 26.9163 0.00069138L33.084 0.00369106ZM30.0002 15.0032C28.0128 14.9751 26.0397 15.3422 24.1954 16.0833C22.3512 16.8245 20.6726 17.9247 19.2573 19.3202C17.8419 20.7157 16.7181 22.3785 15.951 24.2122C15.1839 26.0458 14.7888 28.0136 14.7888 30.0012C14.7888 31.9888 15.1839 33.9566 15.951 35.7902C16.7181 37.6238 17.8419 39.2867 19.2573 40.6821C20.6726 42.0776 22.3512 43.1779 24.1954 43.919C26.0397 44.6601 28.0128 45.0273 30.0002 44.9992C33.9782 44.9992 37.7933 43.4189 40.6062 40.6059C43.4191 37.793 44.9994 33.9778 44.9994 29.9997C44.9994 26.0216 43.4191 22.2064 40.6062 19.3934C37.7933 16.5805 33.9782 15.0032 30.0002 15.0032ZM30.0002 21.003C31.1957 20.9809 32.3835 21.1974 33.4944 21.6396C34.6053 22.0818 35.6169 22.7409 36.4702 23.5785C37.3235 24.4161 38.0013 25.4153 38.4641 26.5178C38.9269 27.6203 39.1653 28.804 39.1655 29.9996C39.1657 31.1953 38.9277 32.3791 38.4652 33.4817C38.0028 34.5844 37.3253 35.5838 36.4723 36.4217C35.6193 37.2595 34.6079 37.919 33.4972 38.3616C32.3864 38.8042 31.1987 39.021 30.0032 38.9994C27.6164 38.9994 25.3273 38.0512 23.6396 36.3634C21.9518 34.6756 21.0037 32.3865 21.0037 29.9997C21.0037 27.6128 21.9518 25.3237 23.6396 23.6359C25.3273 21.9482 27.6164 21 30.0032 21L30.0002 21.003ZM45.7494 10.5033C44.7816 10.5421 43.8664 10.9538 43.1953 11.6522C42.5243 12.3506 42.1495 13.2816 42.1495 14.2502C42.1495 15.2188 42.5243 16.1498 43.1953 16.8482C43.8664 17.5466 44.7816 17.9583 45.7494 17.9971C46.7439 17.9971 47.6977 17.602 48.4009 16.8988C49.1041 16.1955 49.4992 15.2417 49.4992 14.2472C49.4992 13.2527 49.1041 12.2989 48.4009 11.5956C47.6977 10.8924 46.7439 10.4973 45.7494 10.4973V10.5033Z" fill="black"/>
</g>
</svg>
