<svg width="60" height="60" viewBox="0 0 60 60" fill="none" xmlns="http://www.w3.org/2000/svg">
<path id="Vector" d="M51.1509 0H8.84467C3.9801 0 0 3.9801 0 8.84467V51.1553C0 56.0199 3.9801 60 8.84467 60H51.1553C56.0199 60 60 56.0199 60 51.1553V8.84467C59.9956 3.9801 56.0199 0 51.1509 0ZM50.5826 32.0243H43.4627V57.7844H32.8093V32.0243H27.4804V23.1443H32.8093V17.8154C32.8093 10.5716 35.8165 6.26202 44.3737 6.26202H51.487V15.1399H47.0381C43.7125 15.1399 43.4914 16.3847 43.4914 18.6998L43.4627 23.1443H51.5224L50.5826 32.0243Z" fill="black"/>
</svg>
