<svg width="60" height="60" viewBox="0 0 60 60" fill="none" xmlns="http://www.w3.org/2000/svg">
<path id="Vector" d="M30 12.1607C20.2634 12.1607 12.3482 20.0759 12.3348 29.8125C12.3348 33.1473 13.2723 36.4018 15.0402 39.2009L15.4554 39.8705L13.6741 46.3795L20.3571 44.625L21 45.0134C23.7054 46.6205 26.8125 47.4777 29.9866 47.4777H30C39.7232 47.4777 47.8527 39.5625 47.8527 29.8259C47.8527 25.1116 45.817 20.6786 42.4821 17.3438C39.1339 13.9955 34.7143 12.1607 30 12.1607ZM40.3795 37.3929C39.9375 38.6384 37.8214 39.7634 36.8036 39.9107C35.1161 40.1652 33.8036 40.0312 30.442 38.5848C25.125 36.2812 21.6429 30.9241 21.375 30.5759C21.1071 30.2277 19.2054 27.6964 19.2054 25.0848C19.2054 22.4732 20.5714 21.1875 21.067 20.6518C21.5491 20.1161 22.125 19.9821 22.4866 19.9821C22.8348 19.9821 23.1964 19.9821 23.5045 19.9955C23.8259 20.0089 24.2679 19.875 24.6964 20.9062C25.1384 21.9643 26.1964 24.5759 26.3304 24.8438C26.4643 25.1116 26.558 25.4196 26.3705 25.7679C25.3527 27.8036 24.2679 27.7232 24.817 28.6607C26.8661 32.183 28.9152 33.4018 32.0357 34.9688C32.5714 35.2366 32.8795 35.1964 33.1875 34.8348C33.4955 34.4866 34.5134 33.2812 34.8616 32.7589C35.2098 32.2232 35.5714 32.317 36.0536 32.4911C36.5357 32.6652 39.1473 33.9509 39.683 34.2188C40.2187 34.4866 40.567 34.6205 40.7009 34.8348C40.8214 35.0893 40.8214 36.1607 40.3795 37.3929ZM53.5714 0H6.42857C2.87946 0 0 2.87946 0 6.42857V53.5714C0 57.1205 2.87946 60 6.42857 60H53.5714C57.1205 60 60 57.1205 60 53.5714V6.42857C60 2.87946 57.1205 0 53.5714 0ZM29.9866 51.0536C26.4241 51.0536 22.9286 50.1562 19.8348 48.4687L8.57143 51.4286L11.5848 40.4196C9.72321 37.2054 8.74554 33.5491 8.74554 29.7991C8.75893 18.0938 18.2812 8.57143 29.9866 8.57143C35.6652 8.57143 40.9955 10.7812 45.0134 14.7991C49.0179 18.817 51.4286 24.1473 51.4286 29.8259C51.4286 41.5312 41.692 51.0536 29.9866 51.0536Z" fill="black"/>
</svg>
