<svg width="39" height="39" viewBox="0 0 39 39" fill="none" xmlns="http://www.w3.org/2000/svg">
<path id="Subtract" fill-rule="evenodd" clip-rule="evenodd" d="M39 19.5C39 30.2696 30.2696 39 19.5 39C8.73045 39 0 30.2696 0 19.5C0 8.73045 8.73045 0 19.5 0C30.2696 0 39 8.73045 39 19.5ZM15.6095 13.0021C14.6943 13.0046 13.9333 13.019 13.3118 13.1025C12.5317 13.2074 11.8749 13.4318 11.3533 13.9535C10.8316 14.4751 10.6072 15.1319 10.5024 15.912C10.4607 16.2216 10.4363 16.5658 10.4219 16.9464C10.4361 16.9519 10.4502 16.9581 10.4642 16.9647C14.6911 18.9776 16.6459 19.8957 18.7123 20.0073C19.0937 20.0279 19.4757 20.0279 19.857 20.0073C21.8986 19.897 24.0207 18.9075 28.1474 16.9427C28.133 16.5636 28.1085 16.2206 28.0671 15.912C27.9622 15.1319 27.7378 14.4751 27.2162 13.9535C26.6944 13.4318 26.0377 13.2074 25.2576 13.1025C24.6361 13.019 23.8751 13.0046 22.9599 13.0021C22.8495 11.5475 21.6342 10.4016 20.1514 10.4016H18.418C16.9352 10.4016 15.7199 11.5475 15.6095 13.0021ZM16.9167 13.0016H21.6527C21.5476 12.2666 20.9154 11.7016 20.1514 11.7016H18.418C17.654 11.7016 17.0219 12.2666 16.9167 13.0016ZM16.204 28.1677H22.3658C23.5511 28.1677 24.5064 28.1677 25.2578 28.0668C26.0379 27.9619 26.6946 27.7375 27.2164 27.2159C27.738 26.6941 27.9624 26.0374 28.0673 25.2573C28.1682 24.5059 28.1682 23.5506 28.1682 22.3653V18.796C28.1682 18.6521 28.1682 18.5115 28.1681 18.3742C24.3525 20.1905 22.2134 21.1814 19.9273 21.3049C19.4993 21.328 19.0705 21.328 18.6425 21.3049C16.3565 21.1814 14.2173 20.1906 10.4017 18.3742C10.4016 18.5112 10.4016 18.6516 10.4016 18.7952V22.3653C10.4015 23.5506 10.4015 24.5059 10.5026 25.2573C10.6074 26.0374 10.8318 26.6941 11.3535 27.2159C11.8751 27.7375 12.5319 27.9619 13.312 28.0668C14.0634 28.1677 15.0188 28.1677 16.204 28.1677Z" fill="black"/>
</svg>
