<svg width="39" height="39" viewBox="0 0 39 39" fill="none" xmlns="http://www.w3.org/2000/svg">
<path id="Vector" d="M0.00506668 19.7585C0.0624725 24.6968 2.07168 29.75 5.86046 33.4825C9.64925 37.215 14.7584 39.1099 19.7527 38.9951C24.747 38.8802 29.6839 36.9853 33.4727 33.138C40.9928 25.3859 40.8206 13.04 33.0708 5.51765C29.2246 1.72775 24.1729 -0.109779 19.1786 0.00506671C14.1843 0.119912 9.19 2.07228 5.45862 5.86218C1.72724 9.65208 -0.109745 14.7627 0.00506668 19.7585ZM13.9547 11.2025C14.5861 11.2025 15.275 11.547 16.0213 12.4084C17.9731 14.7053 17.112 15.5666 16.1361 16.6002L15.9639 16.7725C15.7917 16.9448 15.562 17.6913 18.4323 20.4475C20.5564 22.5148 21.4748 22.8593 21.9341 22.8593C21.9915 22.8593 22.1637 22.8019 22.2211 22.7445L22.3933 22.5722C22.9674 21.998 23.4266 21.4812 24.2303 21.4812C24.8618 21.4237 25.6081 21.7683 26.584 22.5722C27.3876 23.2613 27.7895 23.8355 27.8469 24.4671C27.9043 25.3859 27.158 26.1324 26.5266 26.764C26.4118 26.8789 26.2969 26.9937 26.1821 27.0512C25.8377 27.5105 25.321 27.7402 24.6322 27.6828C22.8526 27.6828 19.5231 26.5918 15.9639 23.089C14.0121 21.194 12.4621 19.012 11.601 17.0022C10.9122 15.1647 10.8548 13.6142 11.4862 12.9826C11.5436 12.9252 11.601 12.8677 11.6585 12.7529C11.8307 12.5806 11.8881 12.4084 12.0603 12.2361C12.5769 11.8341 13.2084 11.2599 13.9547 11.2025Z" fill="white"/>
</svg>
