<svg width="39" height="39" viewBox="0 0 39 39" fill="none" xmlns="http://www.w3.org/2000/svg">
<g id="Group">
<path id="Vector" d="M17.7013 38.897C14.0063 38.5306 10.6799 37.2436 7.76426 35.0523C3.34588 31.7317 0.60164 26.8022 0.0669399 21.2258C-0.0583106 19.9198 -0.00381699 17.9933 0.197118 16.6231C1.164 10.0306 5.50924 4.33814 11.6339 1.64042C13.1741 0.962031 14.9913 0.437749 16.6383 0.196632C18.4292 -0.065544 20.5712 -0.065544 22.362 0.196632C28.9604 1.16265 34.658 5.50401 37.3581 11.6232C38.0371 13.162 38.5619 14.9776 38.8032 16.6231C39.0656 18.4124 39.0656 20.5525 38.8032 22.3418C38.0598 27.4102 35.2851 32.0443 31.1531 35.118C28.2508 37.2768 24.9239 38.5463 21.2451 38.8984C20.4367 38.9757 18.4875 38.975 17.7013 38.897ZM17.0895 25.6304V23.581H19.5002H21.9108V25.6304V27.6797H23.8562H25.8016V23.9191V20.1585H27.0703C27.7681 20.1585 28.3391 20.1427 28.3391 20.1235C28.3391 20.0703 24.146 15.8909 24.0927 15.8909C24.0671 15.8909 23.0199 14.8653 21.7654 13.6118L19.4846 11.3327L15.0729 15.7087C12.6465 18.1156 10.6612 20.1013 10.6612 20.1216C10.6612 20.1419 11.2417 20.1585 11.9511 20.1585H13.241V23.9191V27.6797H15.1653H17.0895V25.6304Z" fill="black"/>
</g>
</svg>
