<svg width="39" height="39" viewBox="0 0 39 39" fill="none" xmlns="http://www.w3.org/2000/svg">
<path id="Vector" d="M19.5 0C30.2718 0 39 8.7282 39 19.5C39 30.2718 30.2718 39 19.5 39C8.7282 39 0 30.2718 0 19.5C0 8.7282 8.7282 0 19.5 0ZM14.0868 7.176L13.494 7.293L14.0244 9.9606L14.6172 9.8436L14.0868 7.176ZM17.043 7.176L16.4736 9.8358L17.0664 9.9606L17.6358 7.3008L17.043 7.176ZM28.743 29.9754C29.1408 30.3732 29.796 30.3576 30.1782 29.9286C30.5292 29.5386 30.4824 28.9302 30.108 28.5558L29.2812 27.7212L27.885 29.1174L28.743 29.9754ZM15.6078 19.1568L18.0102 23.868L18.642 19.8744L27.3624 28.587L28.7508 27.1986L20.0148 18.4548L24.063 17.8152L19.3518 15.4128L20.1786 10.1868L16.4346 13.9308L11.7234 11.5284L14.1258 16.2474L10.3818 19.9836L15.6078 19.1568ZM7.1448 13.6422L7.0278 14.235L9.6954 14.7654L9.8124 14.1726L7.1448 13.6422ZM7.1448 17.7918L9.8046 17.2224L9.6798 16.6296L7.02 17.199L7.1448 17.7918Z" fill="white"/>
</svg>
