<svg width="39" height="39" viewBox="0 0 39 39" fill="none" xmlns="http://www.w3.org/2000/svg">
<path id="Vector" fill-rule="evenodd" clip-rule="evenodd" d="M19.5 0C8.7295 0 0 8.7295 0 19.5C0 30.2705 8.7295 39 19.5 39C30.2705 39 39 30.2705 39 19.5C39 8.7295 30.2705 0 19.5 0ZM20.5833 13H18.4167C17.8187 13 17.3333 12.5147 17.3333 11.9167V9.75C17.3333 9.152 17.8187 8.66667 18.4167 8.66667H20.5833C21.1813 8.66667 21.6667 9.152 21.6667 9.75V11.9167C21.6667 12.5147 21.1813 13 20.5833 13ZM20.5833 30.3333H18.4167C17.8187 30.3333 17.3333 29.848 17.3333 29.25V18.4167C17.3333 17.8187 17.8187 17.3333 18.4167 17.3333H20.5833C21.1813 17.3333 21.6667 17.8187 21.6667 18.4167V29.25C21.6667 29.848 21.1813 30.3333 20.5833 30.3333Z" fill="black"/>
</svg>
