<svg width="151" height="132" viewBox="0 0 151 132" fill="none" xmlns="http://www.w3.org/2000/svg">
<g id="Group">
<path id="Vector" d="M82.7464 43.2761C85.139 43.2761 87.0787 41.3386 87.0787 38.9486C87.0787 36.5586 85.139 34.6211 82.7464 34.6211C80.3537 34.6211 78.4141 36.5586 78.4141 38.9486C78.4141 41.3386 80.3537 43.2761 82.7464 43.2761Z" fill="white"/>
<path id="Vector_2" d="M115.67 57.9894C116.627 57.9894 117.403 57.2144 117.403 56.2583C117.403 55.3023 116.627 54.5273 115.67 54.5273C114.713 54.5273 113.938 55.3023 113.938 56.2583C113.938 57.2144 114.713 57.9894 115.67 57.9894Z" fill="white"/>
<path id="Vector_3" d="M107.87 58.4207C108.588 58.4207 109.17 57.8395 109.17 57.1225C109.17 56.4055 108.588 55.8242 107.87 55.8242C107.152 55.8242 106.57 56.4055 106.57 57.1225C106.57 57.8395 107.152 58.4207 107.87 58.4207Z" fill="white"/>
<path id="Vector_4" d="M93.1477 25.0996L92.2812 35.0529V35.4856L93.1477 36.3511C93.5809 36.7839 94.0142 36.7839 94.0142 36.3511L96.1803 33.7546C96.1803 33.7546 96.6136 33.3219 97.0468 33.7546L104.412 36.3511C104.845 36.3511 104.845 36.7839 104.845 36.7839L105.278 40.2459C105.278 40.6786 105.711 40.6786 106.145 40.6786H107.444C107.444 40.6786 107.878 40.6786 107.878 40.2459L113.076 31.5909C113.076 31.1581 113.076 31.1581 113.076 30.7254L110.477 25.9651C110.477 25.5323 110.477 25.0996 110.477 24.6668L113.076 19.9066C113.51 18.6083 114.376 17.3101 114.376 16.0118L115.242 13.848C115.676 10.8188 115.676 7.78953 114.809 5.19302L113.51 0.432751C113.51 -4.19152e-07 113.076 0 112.643 0L108.311 3.02926C106.145 4.76027 103.978 6.92402 102.679 9.95328L101.379 11.6843C100.946 12.9825 100.513 14.2808 100.079 15.5791L99.2129 21.2048C99.2129 21.6376 98.7797 22.0703 98.3465 22.0703L93.5809 24.2341C93.5809 24.6668 93.1477 24.6668 93.1477 25.0996ZM104.412 12.5498C105.278 10.386 107.444 9.52053 109.177 9.95328C111.343 10.8188 112.21 12.9825 111.777 14.7135C110.91 16.8773 108.744 17.7428 107.011 17.3101C104.845 16.8773 103.978 14.7135 104.412 12.5498Z" fill="white"/>
<path id="Vector_5" d="M150.764 65.3451C150.764 57.9883 146.432 51.9298 139.933 48.9005C139.933 48.4678 139.933 48.035 139.933 47.6023C139.933 34.6197 129.969 23.8009 116.972 22.5027L115.672 27.263C126.503 27.6957 135.168 36.7835 135.168 47.6023C135.168 48.035 135.168 48.4678 135.168 48.9005V52.3625L138.2 53.6608C142.966 55.8246 145.999 60.5848 145.999 65.7778C145.999 68.3743 145.132 71.4036 143.399 73.5674L141.666 75.7311L142.533 77.8949C143.399 80.4914 143.832 83.0879 143.832 85.6844C143.832 97.8014 134.301 107.322 122.171 107.322C121.304 107.322 120.438 107.322 119.572 107.322L116.539 106.889L115.239 109.053C111.34 115.977 103.975 120.305 96.1771 120.305C86.646 120.305 77.9814 113.813 75.382 104.725L74.5156 100.398L70.1833 101.263C68.4504 101.696 66.2842 101.696 64.5513 101.696C55.8867 101.696 47.6553 98.2342 41.5901 92.1757L38.9907 89.5792L35.9581 91.3102C32.9255 93.0412 29.4597 93.9067 25.9938 93.9067C13.8634 93.9067 4.3323 84.3861 4.3323 72.2691C4.3323 62.3158 10.8308 53.6608 20.795 51.497L23.8277 50.6315L24.2609 47.6023C25.5606 36.7835 34.6584 28.5612 45.9224 28.5612C46.3556 28.5612 46.7889 28.5612 47.2221 28.5612H49.3882L50.6879 26.8302C55.0202 21.2044 61.0855 18.1752 67.1507 18.1752C71.0497 18.1752 74.9488 19.4734 78.4147 21.6372L81.014 23.3682L84.0466 21.6372C86.646 19.4734 90.1119 18.1752 93.5777 18.1752C94.0109 18.1752 94.4442 18.1752 94.8774 18.1752L96.1771 13.8477C95.3106 13.8477 94.4442 13.8477 93.5777 13.8477C88.8122 13.8477 84.4799 15.1459 81.014 17.7424C77.115 15.1459 72.3494 13.8477 67.1507 13.8477C58.9193 13.8477 51.5544 17.7424 47.2221 23.3682C46.7889 23.3682 46.3556 23.3682 45.9224 23.3682C32.4923 23.3682 21.2283 33.3215 19.9286 46.304C8.6646 49.3333 0 59.7193 0 71.8363C0 86.5499 11.6972 98.2342 26.427 98.2342C30.7593 98.2342 34.6584 97.3687 38.5575 95.2049C45.0559 102.129 54.587 106.024 64.5513 106.024C66.7174 106.024 68.8836 106.024 71.0497 105.591C74.0824 116.843 84.4799 124.632 96.1771 124.632C103.975 124.632 111.34 121.17 116.106 115.544C118.272 117.708 121.738 122.901 120.438 131.556C120.438 131.556 129.103 123.334 125.637 111.217C138.634 109.918 149.031 98.6669 149.031 85.2516C149.031 81.7896 148.598 78.7604 147.298 76.1639C149.464 73.1346 150.764 69.2398 150.764 65.3451Z" fill="white"/>
<path id="Vector_6" d="M123.034 60.1563C119.568 60.1563 116.102 61.8873 113.936 64.051C111.77 62.32 109.171 61.4545 106.138 61.4545C105.705 61.4545 105.705 61.4545 105.272 61.4545C104.405 59.2908 103.539 57.127 101.806 55.8287C101.373 53.665 100.506 51.5012 98.7731 49.7702L100.506 39.3842C100.506 38.9514 100.506 38.5187 100.073 38.5187L99.2064 38.0859C98.7731 38.0859 98.3399 38.0859 97.9067 38.5187L94.0076 47.6065C93.5744 47.6065 93.5744 47.6065 93.1411 47.6065C90.5417 47.6065 87.9424 48.9047 86.2094 51.0685C84.4765 51.5012 82.7436 52.3667 81.4439 53.2322C79.2778 51.0685 76.2452 49.3375 72.7793 49.3375C71.4796 49.3375 70.6132 49.3375 69.3135 49.7702C67.5806 45.4427 63.2482 42.4135 58.0495 42.4135C54.1504 42.4135 50.2513 44.1445 48.0852 47.1737C45.919 45.4427 43.3197 44.5772 40.7203 44.5772C34.2218 44.5772 29.0231 49.3375 28.5898 55.396C27.7234 55.396 27.2901 55.396 26.4237 55.396C17.3258 55.396 9.96094 62.7528 9.96094 71.8405C9.96094 80.9283 17.3258 88.2851 26.4237 88.2851C32.0557 88.2851 36.8212 85.6886 39.8538 81.3611C43.7529 90.4489 53.284 96.5074 64.5479 96.5074C69.7467 96.5074 74.5122 95.2091 78.8445 92.6126C78.8445 93.4781 78.4113 94.7764 78.4113 95.6419C78.4113 105.595 86.6427 113.817 96.607 113.817C106.138 113.817 113.503 106.893 114.803 97.8056C117.402 99.9694 120.868 101.268 124.334 101.268C132.565 101.268 139.497 94.3436 139.497 86.1214C139.497 82.2266 137.764 78.7646 135.598 75.7353C136.031 74.4371 136.464 73.1388 136.464 71.4078C135.598 65.3493 129.966 60.1563 123.034 60.1563ZM29.4563 77.0336C27.2901 77.0336 25.5572 75.3026 25.5572 73.1388C25.5572 70.9751 27.2901 69.244 29.4563 69.244C31.6224 69.244 33.3554 70.9751 33.3554 73.1388C33.3554 75.3026 31.6224 77.0336 29.4563 77.0336ZM59.3492 64.051C56.3166 64.051 53.7172 61.4545 53.7172 58.4253C53.7172 55.396 56.3166 52.7995 59.3492 52.7995C62.3818 52.7995 64.9812 55.396 64.9812 58.4253C64.5479 61.4545 62.3818 64.051 59.3492 64.051ZM79.711 77.0336C78.4113 77.0336 77.1116 75.7353 77.1116 74.4371C77.1116 73.1388 78.4113 71.8405 79.711 71.8405C81.0107 71.8405 82.3104 73.1388 82.3104 74.4371C82.3104 76.1681 81.4439 77.0336 79.711 77.0336ZM91.4082 83.5248C90.975 83.5248 90.1085 83.0921 90.1085 82.2266C90.1085 81.7938 90.5418 80.9283 91.4082 80.9283C91.8414 80.9283 92.7079 81.3611 92.7079 82.2266C92.7079 83.0921 92.2747 83.5248 91.4082 83.5248ZM94.0076 72.7061C92.2747 72.7061 90.5417 70.975 90.5417 69.244C90.5417 67.513 92.2747 65.782 94.0076 65.782C95.7405 65.782 97.4734 67.513 97.4734 69.244C97.4734 70.975 95.7405 72.7061 94.0076 72.7061ZM113.936 86.9869C112.203 86.9869 111.337 85.6886 111.337 84.3903C111.337 82.6593 112.636 81.7938 113.936 81.7938C115.669 81.7938 116.536 83.0921 116.536 84.3903C116.536 85.6886 115.669 86.9869 113.936 86.9869Z" fill="white"/>
</g>
</svg>
