<svg width="168" height="109" viewBox="0 0 168 109" fill="none" xmlns="http://www.w3.org/2000/svg">
<g id="Group">
<path id="Vector" d="M134.838 83.7539C127.661 83.7539 121.789 89.4073 121.789 96.3171C121.789 103.227 127.661 108.88 134.838 108.88C142.014 108.88 147.886 103.227 147.886 96.3171C147.886 89.4073 142.014 83.7539 134.838 83.7539ZM134.838 104.693C130.053 104.693 126.139 100.924 126.139 96.3171C126.139 91.7106 130.053 87.9416 134.838 87.9416C139.622 87.9416 143.537 91.7106 143.537 96.3171C143.537 100.924 139.622 104.693 134.838 104.693Z" fill="white"/>
<path id="Vector_2" d="M45.6719 96.3171C45.6719 103.227 51.5438 108.88 58.7205 108.88C65.8973 108.88 71.7691 103.227 71.7691 96.3171C71.7691 89.4073 65.8973 83.7539 58.7205 83.7539C51.5438 83.7539 45.6719 89.4073 45.6719 96.3171ZM58.7205 87.9416C63.505 87.9416 67.4196 91.7106 67.4196 96.3171C67.4196 100.924 63.505 104.693 58.7205 104.693C53.936 104.693 50.0214 100.924 50.0214 96.3171C50.0214 91.7106 53.936 87.9416 58.7205 87.9416Z" fill="white"/>
<path id="Vector_3" d="M30.4471 83.7539C23.2703 83.7539 17.3984 89.4073 17.3984 96.3171C17.3984 103.227 23.2703 108.88 30.4471 108.88C37.6238 108.88 43.4957 103.227 43.4957 96.3171C43.4957 89.4073 37.6238 83.7539 30.4471 83.7539ZM30.4471 104.693C25.6626 104.693 21.748 100.924 21.748 96.3171C21.748 91.7106 25.6626 87.9416 30.4471 87.9416C35.2316 87.9416 39.1462 91.7106 39.1462 96.3171C39.1462 100.924 35.2316 104.693 30.4471 104.693Z" fill="white"/>
<path id="Vector_4" d="M117.435 0.837545C117.435 0.418772 117 0 116.565 0H98.9494V5.23466C98.9494 6.49098 98.0795 7.32853 96.9921 7.32853C95.9047 7.32853 95.0348 6.49098 95.0348 5.23466V0H79.3764C78.9415 0 78.5065 0.418772 78.5065 0.837545L78.2891 25.1264V35.5957H89.1629H116.565C117 35.5957 117.435 35.1769 117.435 34.7582V0.837545Z" fill="white"/>
<path id="Vector_5" d="M22.6199 46.064H51.1094C51.5444 46.064 51.9793 45.6452 51.9793 45.2264V19.6813C51.9793 19.2625 51.5444 18.8438 51.1094 18.8438H39.1482V23.0315C39.1482 24.2878 38.2783 25.1253 36.9734 25.1253C35.6685 25.1253 34.7986 24.2878 34.7986 23.0315V18.8438H22.6199C22.185 18.8438 21.75 19.2625 21.75 19.6813V45.0171C21.75 45.6452 22.185 46.064 22.6199 46.064Z" fill="white"/>
<path id="Vector_6" d="M117.44 38.525C117.44 38.1063 117.005 37.6875 116.57 37.6875H104.392V41.8752C104.392 43.1316 103.522 43.9691 102.217 43.9691C100.912 43.9691 100.042 43.1316 100.042 41.8752V37.6875H88.0808C87.6459 37.6875 87.2109 38.1063 87.2109 38.525V65.9547C87.2109 66.3735 87.6459 66.7922 88.0808 66.7922H116.57C117.005 66.7922 117.44 66.3735 117.44 65.9547V38.525Z" fill="white"/>
<path id="Vector_7" d="M117.439 95.4804V69.9352C117.439 69.5164 117.004 69.0977 116.569 69.0977H104.39V73.2854C104.39 74.5417 103.52 75.3793 102.216 75.3793C100.911 75.3793 100.041 74.5417 100.041 73.2854V69.0977H87.8621C87.4271 69.0977 86.9922 69.5164 86.9922 69.9352V95.271C86.9922 95.6897 87.4271 96.1085 87.8621 96.1085H116.352C117.004 96.3179 117.439 95.8991 117.439 95.4804Z" fill="white"/>
<path id="Vector_8" d="M128.524 31.4062H123.522C122.652 31.4062 122 32.0344 122 32.872V83.1247C122 84.381 123.522 85.0092 124.61 84.1717C127.437 81.8684 131.134 80.4027 135.049 80.4027C143.965 80.4027 151.359 87.5219 151.359 96.1067C151.359 96.7349 151.359 97.5724 151.142 98.2006H159.406C163.973 98.2006 167.67 94.641 167.67 90.2439V82.706C167.67 71.3991 167.235 58.2077 162.451 47.9478C162.233 48.3666 154.404 31.4062 128.524 31.4062Z" fill="white"/>
<path id="Vector_9" d="M75.0275 96.3179H83.9441C84.379 96.3179 84.814 95.8991 84.814 95.4804V69.9352C84.814 69.5164 84.379 69.0977 83.9441 69.0977H71.7654V73.2854C71.7654 74.5417 70.8955 75.3793 69.5906 75.3793C68.2857 75.3793 67.4158 74.5417 67.4158 73.2854V69.0977H55.2371C54.8021 69.0977 54.3672 69.5164 54.3672 69.9352V75.5886V80.6139C55.0196 80.6139 55.8895 80.6139 56.542 80.4045C67.4158 79.567 75.0275 87.7331 75.0275 96.3179Z" fill="white"/>
<path id="Vector_10" d="M0.869908 96.3152H14.136C14.136 87.7303 21.5302 80.6112 30.4468 80.6112C36.5362 80.6112 41.7556 83.752 44.5828 88.5679C46.3226 85.6365 48.9324 83.3332 52.1945 82.0769V48.9938C52.1945 48.575 51.7596 48.1562 51.3246 48.1562H26.0973V52.344C26.0973 53.6003 25.2274 54.4378 23.9225 54.4378C22.6176 54.4378 21.7477 53.6003 21.7477 52.344V48.1562H0.869908C0.434953 48.1562 0 48.575 0 48.9938V95.2682C0 95.8964 0.434953 96.3152 0.869908 96.3152Z" fill="white"/>
<path id="Vector_11" d="M69.5906 35.5941C68.2857 35.5941 67.4158 34.7566 67.4158 33.5002V29.3125H55.2371C54.8021 29.3125 54.3672 29.7313 54.3672 30.15V65.9551C54.3672 66.3739 54.8021 66.7927 55.2371 66.7927H83.7266C84.1616 66.7927 84.5965 66.3739 84.5965 65.9551L84.814 37.688H76.1149V29.3125H71.7654V33.5002C71.7654 34.7566 70.8955 35.5941 69.5906 35.5941Z" fill="white"/>
</g>
</svg>
