<svg width="127" height="132" viewBox="0 0 127 132" fill="none" xmlns="http://www.w3.org/2000/svg">
<g id="Group">
<g id="Group_2">
<path id="Vector" d="M124.701 16.7978H114.921V2.19293C114.921 0.986846 113.934 0 112.728 0H45.5144C33.7164 0 24.1333 9.58311 24.1333 21.3811V52.2357C10.6247 56.5557 0.975905 67.1476 0.559242 67.608C-0.186414 68.4413 -0.186414 69.7133 0.559242 70.5466C0.975905 71.0072 10.6247 81.5989 24.1333 85.9191V117.388C24.199 118.396 23.8262 120.523 24.7254 121.247C26.4358 127.278 31.9621 131.576 38.3215 131.576H124.701C125.929 131.576 126.894 130.589 126.894 129.383V18.9907C126.894 17.7847 125.929 16.7978 124.701 16.7978ZM5.27397 69.0774C8.4757 65.9633 16.6992 58.7706 26.8964 55.9636C42.0056 50.8322 59.3957 63.2003 64.8998 69.0774C46.0845 87.1691 25.5368 88.5944 5.27397 69.0774ZM28.5191 107.103V87.0594C47.7512 91.8181 68.0576 72.937 69.6147 70.5466C70.3603 69.7133 70.3603 68.4413 69.6147 67.608C67.948 65.1082 47.7073 46.3586 28.5191 51.0953V21.3811C28.5191 12.0172 36.1285 4.38587 45.5144 4.38587H110.535V18.947C110.513 18.947 110.535 103.177 110.513 103.199H38.3215C34.6813 103.199 31.1507 104.625 28.5191 107.103ZM111.851 120.611H48.2555C45.3389 120.567 45.3828 116.269 48.2555 116.225H111.851C114.745 116.269 114.701 120.567 111.851 120.611Z" fill="white"/>
<path id="Vector_2" d="M73.3255 13.1586C56.8565 12.8076 42.2736 27.3907 42.6244 43.8596C42.5586 45.6796 42.6025 48.377 45.0586 48.2455C46.2209 48.1577 47.0542 47.1928 47.0762 46.0525H57.032C58.3258 58.2672 73.7422 64.6486 83.2814 56.9294L90.2988 63.9249C87.9962 65.8766 85.3647 67.4556 82.5578 68.5081C81.4394 68.9248 80.8692 70.1968 81.2859 71.337C81.7025 72.4774 82.9963 73.0256 84.1147 72.6089C95.8907 68.3107 104.202 56.4031 104.027 43.8596C104.377 27.3907 89.7944 12.8076 73.3255 13.1586ZM75.5184 17.654C80.9788 18.0926 86.1103 20.2197 90.2988 23.7723L83.2814 30.7897C81.0227 29.0573 78.3473 27.9608 75.5184 27.5661V17.654ZM57.032 41.6667H47.1199C47.5585 36.2063 49.6856 31.0748 53.2383 26.8863L60.2556 33.9036C58.5232 36.1624 57.4267 38.8377 57.032 41.6667ZM64.795 52.3901C53.8742 40.7675 70.2553 24.4083 81.856 35.3291C92.7987 46.9516 76.4175 63.3109 64.795 52.3901ZM93.4127 60.8329L86.3954 53.8155C88.1278 51.5568 89.2243 48.8814 89.619 46.0525H99.5311C99.0924 51.5129 96.9654 56.6443 93.4127 60.8329Z" fill="white"/>
<path id="Vector_3" d="M35.0906 80.6817C19.762 80.2651 19.7401 57.9191 35.0906 57.4805C50.4192 57.963 50.4192 80.1994 35.0906 80.6817Z" fill="white"/>
</g>
</g>
</svg>
